# Blender v2.79 (sub 0) OBJ File: 'pawn.obj'
# www.blender.org
mtllib king.mtl
o PM3D_CHESS_SET_3.002
v 0.223930 2.567470 0.246010
v 0.077221 1.356325 0.370771
v 0.250234 1.342643 0.284838
v 0.105356 1.239582 -0.375637
v 0.081736 2.627399 -0.328370
v 0.241592 2.629173 -0.229061
v 0.078991 2.628266 0.322603
v -0.272726 1.312936 -0.286646
v -0.376212 1.293792 -0.122663
v -0.255487 2.633503 -0.236854
v -0.734128 0.149868 0.430102
v -0.811125 -0.000255 0.106363
v -0.496269 -0.016922 0.597266
v -0.074405 1.326902 0.372561
v -0.094681 2.633130 0.325045
v -0.266681 1.447521 0.280500
v 0.075217 3.742020 -0.188961
v 0.576216 3.631485 -0.149247
v 0.313698 3.628060 -0.502524
v -0.345752 2.628697 -0.001005
v 0.318537 2.631709 -0.083154
v 0.364151 1.395640 -0.089226
v 0.279228 1.254032 -0.266356
v -0.530761 -0.008518 -0.637144
v 0.601704 -0.013482 -0.553221
v 0.085185 0.046778 -0.843869
v -0.380444 0.893678 -0.246822
v -0.658376 0.428134 -0.403920
v -0.456519 0.900557 0.017248
v 0.664980 0.253793 0.128074
v 0.785418 0.146988 0.282879
v 0.812263 0.155287 -0.168273
v 0.442498 0.895799 -0.028744
v 0.658259 0.425311 -0.386883
v 0.308613 0.887341 -0.336996
v 0.448716 3.450531 0.470080
v 0.156199 2.974646 0.285943
v 0.310970 2.977600 0.114907
v -0.338959 2.975609 0.047924
v -0.592530 3.370287 -0.160127
v -0.252641 2.976215 -0.245501
v 0.254151 3.723784 0.148863
v 0.274172 3.583951 0.595286
v 0.603946 3.576025 0.262747
v -0.082749 3.500127 0.664830
v -0.378076 3.529719 0.578906
v -0.047539 2.990821 0.339667
v 0.202862 3.491013 -0.642945
v 0.489231 3.498544 -0.466208
v 0.147521 2.980088 -0.299811
v 0.590189 3.386190 0.143615
v -0.494901 3.530597 -0.490898
v -0.162790 3.471483 -0.652703
v -0.038271 2.983640 -0.342506
v 0.322525 0.902868 0.302194
v 0.149201 0.442670 0.744780
v 0.492806 0.412392 0.579990
v 0.120438 0.250135 0.677387
v -0.212704 0.412881 0.735691
v -0.300599 0.262353 0.637547
v -0.699333 0.253107 -0.020006
v -0.763874 0.413100 -0.102564
v -0.595800 0.251063 -0.376515
v -0.320349 0.913787 0.312626
v -0.544418 0.440520 0.540742
v -0.279102 2.985844 0.211272
v -0.572868 3.500801 0.363207
v -0.596442 3.363202 0.130310
v -0.000498 3.607505 -0.635705
v -0.484055 3.645887 -0.357349
v 0.808642 0.018615 -0.011767
v 0.652052 -0.011000 0.423758
v 0.152161 0.154974 0.819823
v -0.561771 3.630788 0.224184
v -0.161429 3.748646 0.046150
v -0.071065 3.657151 0.553616
v 0.313950 2.633015 0.107796
v 0.315722 2.985871 -0.122973
v 0.028422 0.426034 -0.778013
v -0.396348 0.423303 -0.665232
v -0.226318 0.898913 -0.387264
v 0.407814 0.428571 -0.642244
v 0.011978 0.871689 -0.463002
v -0.086007 1.332601 -0.380898
v -0.272729 2.628544 0.207242
v 0.000058 0.889908 0.454191
v 0.650331 3.497749 -0.159046
v -0.858556 0.134397 -0.139260
v -0.315171 0.257106 -0.622060
v -0.641648 0.168593 -0.522526
v -0.744976 0.431443 0.184285
v -0.382976 1.345571 0.072993
v 0.334847 0.000387 0.723724
v 0.549492 0.138230 0.632664
v -0.378435 0.149578 0.755093
v -0.135749 0.033411 0.816722
v 0.756478 0.414332 -0.010787
v 0.699235 0.422225 0.285974
v 0.359420 1.371881 0.105267
v -0.220475 2.668570 -0.447666
v -0.441437 2.763716 -0.201393
v -0.502955 2.669559 0.020776
v -0.282162 2.697603 0.402750
v 0.553192 0.162339 -0.627769
v 0.637388 0.255218 -0.271396
v 0.331047 2.694201 0.366387
v 0.327288 2.796897 -0.307271
v 0.438270 2.796236 0.081672
v 0.141481 2.682399 -0.468969
v 0.464389 2.671470 -0.120925
v -0.680970 3.544693 -0.019445
v 0.040424 2.656554 0.476181
v 0.127889 3.377180 0.589652
v -0.089718 2.624845 -0.326173
v 0.032441 0.260616 -0.696033
v 0.366949 0.254840 -0.585136
v 0.061755 0.180452 -0.814416
v -0.372604 0.156981 -0.757930
v -0.624719 0.252539 0.315770
v 0.489175 0.261548 0.488559
vt 0.625921 0.706733
vt 0.611724 0.589532
vt 0.628467 0.588208
vt 0.667821 0.704698
vt 0.670107 0.570400
vt 0.654638 0.570228
vt 0.611896 0.712616
vt 0.132790 0.085066
vt 0.134643 0.069197
vt 0.005000 0.080247
vt 0.149918 0.350029
vt 0.164446 0.381357
vt 0.166059 0.333853
vt 0.597052 0.586685
vt 0.595090 0.713087
vt 0.578445 0.598357
vt 0.516428 0.111618
vt 0.520272 0.160099
vt 0.486085 0.134696
vt 0.005465 0.057424
vt 0.235109 0.142709
vt 0.115496 0.142122
vt 0.101792 0.124981
vt 0.174871 0.309636
vt 0.294323 0.312974
vt 0.286202 0.203386
vt 0.314328 0.253369
vt 0.173362 0.081212
vt 0.218411 0.096414
vt 0.172695 0.055658
vt 0.334018 0.152431
vt 0.348998 0.164086
vt 0.305341 0.166684
vt 0.067127 0.147974
vt 0.021597 0.113318
vt 0.066308 0.118145
vt 0.533723 0.710844
vt 0.487673 0.693026
vt 0.487958 0.676475
vt 0.068402 0.689935
vt 0.030207 0.710068
vt 0.068343 0.718330
vt 0.549119 0.128933
vt 0.592319 0.130871
vt 0.560139 0.162783
vt 0.200793 0.705321
vt 0.172213 0.708185
vt 0.204200 0.656036
vt 0.355990 0.666678
vt 0.328279 0.665949
vt 0.361347 0.716120
vt 0.527496 0.679252
vt 0.400068 0.716494
vt 0.423513 0.662847
vt 0.391374 0.668568
vt 0.379324 0.715776
vt 0.635462 0.545651
vt 0.618690 0.501118
vt 0.651940 0.498188
vt 0.615907 0.482487
vt 0.583669 0.498236
vt 0.575163 0.483669
vt 0.235349 0.059263
vt 0.219866 0.067252
vt 0.235547 0.093762
vt 0.573252 0.546708
vt 0.551569 0.500910
vt 0.067410 0.674128
vt 0.017580 0.659426
vt 0.030894 0.681963
vt 0.473197 0.104291
vt 0.500133 0.057498
vt 0.840458 0.677725
vt 0.852879 0.706238
vt 0.837591 0.719871
vt 0.400958 0.102806
vt 0.387175 0.099736
vt 0.383320 0.058993
vt 0.556408 0.049977
vt 0.539180 0.088718
vt 0.588286 0.097463
vt 0.235235 0.161187
vt 0.488758 0.653455
vt 0.488198 0.636343
vt 0.538369 0.620240
vt 0.675266 0.783424
vt 0.716371 0.783688
vt 0.699917 0.737664
vt 0.648152 0.738784
vt 0.638553 0.783179
vt 0.676857 0.740298
vt 0.686339 0.695696
vt 0.577860 0.712643
vt 0.181791 0.655554
vt 0.604258 0.544397
vt 0.489600 0.151682
vt 0.538292 0.649964
vt 0.285190 0.030427
vt 0.308149 0.005000
vt 0.319689 0.020408
vt 0.222375 0.340104
vt 0.261429 0.057583
vt 0.271060 0.025990
vt 0.218091 0.039494
vt 0.217212 0.005000
vt 0.171415 0.027075
vt 0.119766 0.030183
vt 0.005480 0.037273
vt 0.129632 0.050264
vt 0.676012 0.146115
vt 0.693691 0.131156
vt 0.714460 0.144495
vt 0.191661 0.198514
vt 0.613263 0.129481
vt 0.624666 0.145593
vt 0.590247 0.145621
vt 0.153634 0.274749
vt 0.162633 0.229210
vt 0.020535 0.149712
vt 0.067810 0.179999
vt 0.020348 0.206881
vt 0.021299 0.178429
vt 0.113196 0.160943
vt 0.228893 0.174562
vt 0.110367 0.178319
vt 0.708515 0.799771
vt 0.735671 0.800356
vt 0.396957 0.746265
vt 0.098114 0.737893
vt 0.088906 0.714061
vt 0.098018 0.692562
vt 0.095303 0.655599
vt 0.766750 0.358193
vt 0.816735 0.352362
vt 0.771444 0.341179
vt 0.295362 0.149761
vt 0.260877 0.141614
vt 0.361449 0.852578
vt 0.359341 0.867790
vt 0.384275 0.843843
vt 0.322380 0.846424
vt 0.341297 0.845511
vt 0.460533 0.700810
vt 0.470471 0.635621
vt 0.470407 0.673258
vt 0.361931 0.744927
vt 0.383520 0.795741
vt 0.406735 0.805429
vt 0.373054 0.774181
vt 0.393131 0.811210
vt 0.330134 0.811476
vt 0.350920 0.788739
vt 0.325898 0.787085
vt 0.369398 0.788295
vt 0.014696 0.742077
vt 0.532833 0.038443
vt 0.181494 0.627661
vt 0.212711 0.623689
vt 0.240835 0.627332
vt 0.315274 0.815208
vt 0.329900 0.828282
vt 0.650996 0.703299
vt 0.252222 0.700522
vt 0.221176 0.693424
vt 0.223916 0.654471
vt 0.392918 0.827802
vt 0.404673 0.840455
vt 0.702740 0.569809
vt 0.686698 0.570647
vt 0.254271 0.091221
vt 0.265002 0.123591
vt 0.242814 0.094058
vt 0.248280 0.052025
vt 0.674877 0.799431
vt 0.642507 0.799990
vt 0.005138 0.124493
vt 0.005101 0.094133
vt 0.363245 0.017041
vt 0.394695 0.051461
vt 0.235404 0.026770
vt 0.543798 0.482719
vt 0.005000 0.163150
vt 0.005750 0.198033
vt 0.382847 0.141255
vt 0.368902 0.135419
vt 0.233806 0.183361
vt 0.853682 0.662580
vt 0.837351 0.625329
vt 0.854364 0.618115
vt 0.352181 0.027628
vt 0.375671 0.655405
vt 0.908058 0.343883
vt 0.887068 0.340574
vt 0.876339 0.357713
vt 0.861032 0.341698
vt 0.201921 0.720516
vt 0.235331 0.713432
vt 0.013332 0.696455
vt 0.005000 0.672879
vt 0.590734 0.067753
vt 0.741727 0.783221
vt 0.714832 0.738171
vt 0.634633 0.713076
vt 0.151415 0.405126
vt 0.165245 0.453306
vt 0.648152 0.134352
vt 0.021913 0.088607
vt 0.651589 0.483591
vt 0.487210 0.056448
vt 0.852032 0.740086
vt 0.545866 0.690781
vt 0.546634 0.722960
vt 0.551233 0.650912
vt 0.724386 0.130054
vt 0.014780 0.638553
vt 0.704408 0.697599
vt 0.345266 0.653416
vt 0.458334 0.653653
vt 0.459392 0.619973
vt 0.819001 0.339427
vt 0.234863 0.128590
vn 0.4469 0.0379 0.8938
vn 0.5277 0.0378 -0.8486
vn 0.5270 0.0379 -0.8490
vn 0.5288 0.0376 -0.8479
vn 0.4776 0.0326 0.8780
vn -0.8469 0.0311 -0.5308
vn -0.7011 -0.5685 0.4304
vn -0.4181 0.0265 0.9080
vn 0.2254 0.9581 -0.1768
vn -0.9330 0.0537 -0.3560
vn 0.8883 0.0355 -0.4579
vn 0.8899 0.0351 -0.4547
vn 0.8852 0.0364 -0.4637
vn 0.0050 -1.0000 0.0020
vn -0.0039 -1.0000 -0.0067
vn 0.0050 -1.0000 0.0024
vn 0.0123 -0.9745 -0.2239
vn -0.7945 0.5564 -0.2434
vn -0.7938 0.5570 -0.2443
vn -0.7911 0.5591 -0.2481
vn 0.6247 0.7791 0.0515
vn 0.7336 0.5913 -0.3349
vn 0.6077 -0.5824 0.5399
vn -0.7614 -0.6079 -0.2252
vn 0.2975 0.9148 0.2732
vn -0.2855 -0.5297 0.7987
vn 0.4555 -0.5298 -0.7154
vn 0.7341 -0.5314 0.4228
vn -0.4474 -0.5182 -0.7289
vn -0.3238 -0.5651 -0.7588
vn 0.3994 0.5529 0.7313
vn -0.0959 -0.5038 0.8585
vn -0.8492 -0.4684 -0.2439
vn -0.3913 0.5433 0.7428
vn -0.7432 -0.5404 0.3945
vn -0.0820 0.9581 -0.2746
vn 0.8409 -0.4687 0.2705
vn -0.0289 0.8282 0.5597
vn -0.2880 0.9575 -0.0136
vn -0.1905 0.9596 0.2069
vn 0.9990 0.0366 0.0250
vn 0.9990 0.0368 0.0237
vn 0.9990 0.0362 0.0274
vn 0.6022 -0.5748 -0.5540
vn -0.2177 0.5493 -0.8067
vn 0.2727 0.5731 -0.7728
vn -0.1916 0.5618 -0.8048
vn 0.0443 0.0348 -0.9984
vn -0.5520 0.0488 0.8324
vn -0.3914 -0.5632 0.7278
vn 0.3250 0.5891 0.7398
vn -0.2929 0.5794 0.7606
vn 0.5895 0.6743 -0.4446
vn 0.7550 -0.5216 -0.3974
vn -0.5138 0.8439 -0.1541
vn -0.0442 -0.9990 -0.0056
vn -0.3475 0.8590 -0.3760
vn -0.5765 0.7756 -0.2571
vn -0.7905 0.5596 -0.2488
vn -0.7378 0.5428 0.4013
vn -0.7516 0.5764 0.3207
vn -0.8773 0.0252 0.4793
vn 0.4232 -0.0618 0.9039
vn 0.0055 -1.0000 0.0023
vn -0.6586 -0.2170 0.7206
vn -0.0182 -0.9676 0.2517
vn 0.8241 0.5300 -0.1998
vn 0.6891 0.5232 0.5013
vn 0.8514 0.0349 0.5234
vn 0.7634 0.5894 0.2642
vn -0.8750 -0.3594 -0.3243
vn -0.5797 -0.4582 -0.6738
vn -0.3751 0.4814 -0.7922
vn -0.6040 0.3926 -0.6936
vn -0.7515 0.6221 -0.2198
vn -0.8320 0.3131 0.4580
vn 0.4550 -0.2383 -0.8580
vn 0.6079 0.7215 -0.3316
vn -0.2654 -0.9565 -0.1211
vn -0.3904 -0.8738 0.2898
vn 0.6161 0.5468 0.5670
vn 0.9144 0.3099 -0.2604
vn -0.0684 0.3512 -0.9338
vn 0.5761 0.5885 -0.5672
vn 0.3295 -0.8833 -0.3335
vn 0.1888 -0.9391 -0.2871
vn 0.2128 -0.9539 0.2116
vn 0.2661 -0.9639 0.0130
vn -0.7182 -0.5190 -0.4635
vn -0.5196 0.8531 -0.0473
vn -0.4272 0.5034 0.7510
vn 0.2714 0.4242 0.8639
vn 0.2092 -0.9510 0.2277
vn -0.1761 -0.9367 0.3026
vn 0.2993 0.5581 -0.7739
vn 0.5295 0.0375 -0.8475
vn 0.1652 0.9433 0.2880
vn 0.3998 -0.5340 0.7450
vn 0.0104 -0.9332 -0.3593
vn 0.0150 -0.9356 -0.3528
vn 0.0149 -0.9354 -0.3532
vn -0.4726 0.0359 -0.8806
vn 0.4808 -0.8599 0.1717
vn 0.7669 0.4555 0.4521
vn 0.1864 0.8343 -0.5188
vn -0.1187 0.8083 -0.5767
vn 0.2789 -0.4210 -0.8631
vn -0.2381 -0.3515 -0.9054
vn 0.6679 -0.4724 -0.5751
vn 0.3162 -0.3626 -0.8767
vn -0.4241 0.7772 0.4648
vn -0.8487 -0.2155 0.4830
vn -0.3517 -0.9122 -0.2101
vn -0.1512 -0.9707 -0.1866
vn -0.5064 -0.2436 0.8272
vn -0.6066 -0.4900 0.6260
vn 0.9258 -0.2834 -0.2501
vn 0.7655 -0.5160 0.3844
vn 0.2914 0.7836 0.5486
vn 0.4785 0.8513 0.2151
vn 0.1691 -0.9856 -0.0062
vn 0.8708 0.0323 -0.4905
vn -0.6503 0.7499 0.1217
vn -0.3964 0.8386 0.3737
vn 0.7746 -0.3414 0.5324
vn 0.3785 -0.3557 0.8545
vn -0.3146 0.4778 -0.8202
vn 0.0508 -0.5266 -0.8486
vn -0.8434 -0.2072 -0.4958
vn -0.2604 -0.3944 -0.8813
vn -0.1741 0.5777 0.7974
vn 0.0237 0.5766 0.8167
vn -0.8750 0.3865 0.2915
vn -0.3208 0.8541 0.4095
vn -0.9426 0.0464 0.3306
vn -0.2399 -0.9672 0.0834
vn 0.2501 0.7726 -0.5836
vn 0.3636 0.8769 -0.3144
vn 0.3591 0.9278 0.1007
vn 0.8353 -0.5486 -0.0362
vn 0.8257 -0.5641 -0.0031
vn 0.8211 0.5697 0.0362
vn -0.5845 0.5502 -0.5963
vn -0.6676 -0.3385 -0.6631
vn 0.5588 0.5469 0.6233
vn 0.8313 0.0289 0.5551
vn -0.6784 -0.6916 -0.2481
vn -0.9763 0.0432 0.2122
vn 0.1528 -0.3852 0.9101
vn -0.0880 0.7473 0.6587
vn -0.0648 0.5284 0.8465
vn 0.0035 -0.3308 0.9437
vn 0.6609 -0.3701 -0.6529
vn 0.6106 0.5260 -0.5921
vn 0.2324 0.8319 0.5040
vn 0.4117 -0.4796 0.7749
vn -0.1685 0.3343 0.9273
vn -0.1907 -0.9285 0.3188
vn 0.9973 0.0424 0.0601
vn 0.8717 -0.3789 -0.3107
vn 0.0157 0.9845 0.1747
vn 0.2198 0.9734 -0.0639
vn 0.8439 -0.5331 -0.0602
vn 0.5101 0.8595 -0.0322
vn -0.2933 0.7353 -0.6110
vn -0.8177 0.4669 -0.3367
vn 0.8143 -0.2021 0.5442
vn 0.5563 0.7319 0.3935
vn 0.6877 0.2656 0.6757
vn 0.3927 -0.3015 0.8688
vn 0.8748 0.4844 0.0063
vn 0.7846 0.4649 -0.4103
vn -0.9172 -0.1774 -0.3567
vn -0.8351 -0.5495 -0.0247
vn -0.4168 -0.4524 0.7884
vn -0.1196 0.2587 0.9585
vn 0.0129 -0.9986 0.0516
vn 0.5884 -0.4929 0.6410
vn 0.8263 0.5443 0.1449
vn 0.9142 -0.3602 0.1859
vn -0.5977 -0.5208 0.6096
vn -0.6384 0.5870 0.4979
vn -0.2899 0.1078 -0.9510
vn -0.4536 0.0395 -0.8903
vn 0.1237 0.1995 -0.9721
vn 0.3827 0.1204 -0.9160
vn -0.7165 -0.5486 -0.4309
vn -0.8791 0.4748 -0.0422
vn 0.9989 0.0360 0.0287
vn 0.8730 0.0786 -0.4814
vn 0.9862 0.1598 0.0435
vn 0.9384 0.0684 0.3387
vn -0.5996 0.7889 0.1346
vn -0.8742 -0.4454 0.1935
vn -0.1826 -0.4401 -0.8792
vn -0.1261 0.8233 -0.5534
vn 0.1625 -0.5870 0.7931
vn 0.2627 0.4138 0.8716
vn 0.4692 0.4177 -0.7780
vn 0.0213 0.0990 -0.9949
vn -0.8481 0.5293 0.0220
vn -0.9383 -0.3356 0.0833
vn 0.7129 -0.2133 -0.6681
vn 0.4179 0.4424 -0.7935
vn -0.1367 0.1902 -0.9722
vn 0.3512 0.2598 -0.8995
vn 0.9341 -0.2375 0.2667
vn 0.8082 0.5422 -0.2297
vn 0.9782 -0.1566 0.1366
vn 0.8405 -0.3304 0.4294
vn -0.9988 0.0266 -0.0416
vn -0.9558 0.0963 -0.2779
vn -0.9818 0.1722 -0.0795
vn -0.9054 0.0979 0.4130
vn -0.8897 0.1160 0.4416
vn -0.3815 0.0937 0.9196
vn -0.3955 0.1031 0.9126
vn 0.4216 0.0916 0.9022
vn -0.8424 0.1678 -0.5120
vn -0.4582 0.1611 -0.8741
vn 0.5091 0.2020 -0.8367
vn 0.9055 0.1491 -0.3974
vn -0.8549 0.4327 0.2862
vn -0.7588 -0.5708 0.3138
vn -0.1230 0.9808 -0.1514
vn 0.0534 0.9982 0.0256
vn 0.8837 0.0368 -0.4667
vn 0.2355 -0.9659 -0.1074
vn 0.2924 0.5587 -0.7761
vn 0.0638 0.9525 -0.2976
vn 0.4491 0.1088 0.8868
vn 0.8321 0.1578 0.5317
vn 0.0093 -0.9326 -0.3609
vn -0.0134 0.0423 -0.9990
vn -0.3590 0.8174 -0.4506
vn -0.6547 0.0768 -0.7520
vn -0.6719 0.1029 -0.7335
vn -0.5697 0.5569 -0.6044
vn -0.0251 -0.9843 0.1750
vn 0.0123 0.0374 0.9992
vn 0.0151 0.0378 0.9992
vn 0.0075 0.0368 0.9993
vn -0.0233 0.1797 0.9834
vn 0.0047 0.0364 0.9993
vn 0.2051 0.4804 -0.8527
vn 0.1750 -0.5619 -0.8085
vn -0.8989 -0.4375 -0.0228
vn -0.9407 -0.2417 0.2380
vn 0.2304 -0.1890 0.9546
vn -0.0138 -0.5388 0.8424
usemtl None
s 1
f 1/1/1 2/2/1 3/3/1
f 4/4/2 5/5/3 6/6/4
f 1/1/5 7/7/5 2/2/5
f 8/8/6 9/9/6 10/10/6
f 11/11/7 12/12/7 13/13/7
f 14/14/8 15/15/8 16/16/8
f 17/17/9 18/18/9 19/19/9
f 9/9/10 20/20/10 10/10/10
f 21/21/11 22/22/12 23/23/13
f 13/24/14 24/25/15 25/26/16
f 25/26/17 24/25/17 26/27/17
f 27/28/18 28/29/19 29/30/20
f 30/31/21 31/32/21 32/33/21
f 33/34/22 34/35/22 35/36/22
f 36/37/23 37/38/23 38/39/23
f 39/40/24 40/41/24 41/42/24
f 42/43/25 43/44/25 44/45/25
f 45/46/26 46/47/26 47/48/26
f 48/49/27 49/50/27 50/51/27
f 51/52/28 36/37/28 38/39/28
f 41/53/29 52/54/29 53/55/29
f 53/55/30 54/56/30 41/53/30
f 55/57/31 56/58/31 57/59/31
f 58/60/32 59/61/32 60/62/32
f 61/63/33 62/64/33 63/65/33
f 64/66/34 65/67/34 59/61/34
f 66/68/35 67/69/35 68/70/35
f 17/17/36 69/71/36 70/72/36
f 71/73/37 31/74/37 72/75/37
f 73/76/38 58/77/38 60/78/38
f 74/79/39 75/80/39 70/72/39
f 76/81/40 75/80/40 74/79/40
f 22/22/41 21/21/42 77/82/43
f 78/83/44 50/84/44 49/85/44
f 79/86/45 80/87/45 81/88/45
f 35/89/46 82/90/46 79/86/46
f 83/91/47 79/86/47 81/88/47
f 4/4/48 84/92/48 5/5/48
f 16/16/49 15/15/49 85/93/49
f 47/48/50 46/47/50 66/94/50
f 56/58/51 55/57/51 86/95/51
f 59/61/52 86/95/52 64/66/52
f 19/19/53 18/18/53 49/96/53
f 78/83/54 49/85/54 87/97/54
f 63/98/55 88/99/55 61/100/55
f 24/25/56 13/24/56 12/101/56
f 63/98/57 89/102/57 90/103/57
f 88/99/58 63/98/58 90/103/58
f 62/64/59 29/30/20 28/29/19
f 91/104/60 65/105/60 64/106/60
f 91/104/61 64/106/61 29/30/61
f 16/107/62 85/108/62 92/109/62
f 73/110/63 93/111/63 94/112/63
f 13/24/14 25/26/16 72/113/64
f 13/114/65 95/115/65 11/116/65
f 96/117/66 13/24/66 93/118/66
f 33/34/67 97/119/67 34/35/67
f 55/120/68 57/121/68 98/122/68
f 99/123/69 1/124/69 3/125/69
f 33/34/70 55/120/70 98/122/70
f 62/64/71 28/29/71 63/65/71
f 89/126/72 63/127/72 80/87/72
f 54/56/73 100/128/73 41/53/73
f 100/129/74 101/130/74 41/42/74
f 39/40/75 41/42/75 101/130/75
f 102/131/76 103/132/76 66/68/76
f 25/133/77 26/134/77 104/135/77
f 105/136/78 32/33/78 104/137/78
f 20/138/79 102/139/79 10/140/79
f 103/141/80 102/139/80 85/142/80
f 38/39/81 37/38/81 106/143/81
f 107/144/82 78/83/82 108/145/82
f 109/146/83 100/128/83 54/56/83
f 78/83/84 107/144/84 50/84/84
f 6/147/85 109/148/85 110/149/85
f 5/150/86 109/148/86 6/147/86
f 7/151/87 77/152/87 106/153/87
f 77/152/88 21/154/88 110/149/88
f 52/155/89 41/42/89 40/41/89
f 70/72/90 111/156/90 74/79/90
f 47/48/91 66/94/91 103/157/91
f 112/158/92 106/159/92 47/48/92
f 112/160/93 7/151/93 106/153/93
f 112/160/94 85/142/94 15/161/94
f 79/86/95 83/91/95 35/89/95
f 4/4/2 6/6/4 23/162/96
f 43/44/97 42/43/97 76/81/97
f 36/163/98 113/164/98 37/165/98
f 114/166/99 100/167/100 109/148/101
f 84/92/102 10/168/102 114/169/102
f 106/153/103 77/152/103 110/149/103
f 108/145/104 38/39/104 106/143/104
f 115/170/105 116/171/105 117/172/105
f 115/170/106 117/172/106 118/173/106
f 115/174/107 79/86/107 116/175/107
f 89/126/108 80/87/108 79/86/108
f 105/176/109 116/177/109 34/35/109
f 116/175/110 79/86/110 82/90/110
f 60/78/111 11/178/111 95/179/111
f 119/180/112 65/105/112 91/104/112
f 10/140/113 102/139/113 100/167/113
f 10/140/114 100/167/114 114/166/114
f 59/61/115 65/67/115 60/62/115
f 119/181/116 60/62/116 65/67/116
f 97/119/117 105/176/117 34/35/117
f 30/182/118 98/122/118 120/183/118
f 94/184/119 120/185/119 73/76/119
f 30/31/120 120/185/120 31/32/120
f 72/113/121 25/26/121 71/186/121
f 32/187/122 25/188/122 104/189/122
f 11/178/123 61/100/123 88/99/123
f 60/78/124 119/190/124 11/178/124
f 120/183/125 98/122/125 57/121/125
f 57/59/126 56/58/126 58/60/126
f 53/55/127 52/54/127 69/191/127
f 54/56/128 53/55/128 48/49/128
f 88/192/129 90/193/129 24/194/129
f 26/134/130 24/194/130 118/195/130
f 45/46/131 76/196/131 46/47/131
f 45/46/132 43/197/132 76/196/132
f 111/198/133 67/69/133 74/199/133
f 46/200/134 76/81/134 74/79/134
f 92/109/135 85/108/135 20/20/135
f 85/142/136 102/139/136 20/138/136
f 104/137/137 117/172/137 116/171/137
f 105/136/138 104/137/138 116/171/138
f 18/18/139 42/43/139 44/45/139
f 87/97/140 51/52/140 78/83/140
f 38/39/141 78/83/141 51/52/141
f 38/39/142 108/145/142 78/83/142
f 28/201/143 27/202/143 80/87/143
f 80/87/144 63/127/144 28/201/144
f 7/7/145 1/1/145 77/203/145
f 77/82/146 1/124/146 99/123/146
f 12/12/147 88/204/147 24/205/147
f 12/12/148 11/11/148 88/204/148
f 93/111/149 73/110/149 96/206/149
f 73/76/150 60/78/150 95/179/150
f 86/95/151 59/61/151 56/58/151
f 56/58/152 59/61/152 58/60/152
f 82/207/153 34/35/153 116/177/153
f 35/36/154 34/35/154 82/207/154
f 120/185/155 58/77/155 73/76/155
f 120/208/156 57/59/156 58/60/156
f 47/48/157 103/157/157 112/158/157
f 112/160/158 103/141/158 85/142/158
f 71/73/159 32/187/159 31/74/159
f 25/188/160 32/187/160 71/73/160
f 76/81/161 42/43/161 75/80/161
f 17/17/162 42/43/162 18/18/162
f 30/182/163 105/176/163 97/119/163
f 105/136/164 30/31/164 32/33/164
f 70/72/165 69/71/165 52/209/165
f 111/156/166 70/72/166 52/209/166
f 31/74/167 94/210/167 72/75/167
f 120/185/168 94/184/168 31/32/168
f 44/211/169 43/212/169 36/37/169
f 113/164/170 36/163/170 43/197/170
f 18/213/171 44/211/171 87/97/171
f 18/213/172 87/97/172 49/85/172
f 111/198/173 52/155/173 40/41/173
f 39/40/174 68/70/174 40/41/174
f 96/206/175 95/115/175 13/114/175
f 73/110/176 95/115/176 96/206/176
f 93/118/177 13/24/177 72/113/177
f 72/214/178 94/112/178 93/111/178
f 97/119/179 33/34/179 98/122/179
f 97/119/180 98/122/180 30/182/180
f 66/68/181 46/215/181 67/69/181
f 74/199/182 67/69/182 46/215/182
f 83/91/183 81/88/183 84/92/183
f 84/92/184 8/216/184 10/168/184
f 84/92/185 4/4/185 83/91/185
f 83/91/186 4/4/186 35/89/186
f 102/131/187 101/130/187 100/129/187
f 39/40/188 101/130/188 102/131/188
f 77/82/43 99/123/189 22/22/41
f 23/23/190 22/22/190 33/34/190
f 33/34/191 22/22/191 99/123/191
f 55/120/192 33/34/192 99/123/192
f 119/190/193 61/100/193 11/178/193
f 61/63/194 119/180/194 91/104/194
f 115/174/195 89/126/195 79/86/195
f 89/102/196 115/170/196 118/173/196
f 37/165/197 113/164/197 47/48/197
f 37/165/198 47/48/198 106/159/198
f 19/217/199 49/50/199 48/49/199
f 53/55/200 69/191/200 48/49/200
f 91/104/201 29/30/201 62/64/201
f 62/64/202 61/63/202 91/104/202
f 110/218/203 109/219/203 107/144/203
f 50/84/204 107/144/204 109/219/204
f 26/134/205 118/195/205 117/220/205
f 104/135/206 26/134/206 117/220/206
f 110/218/207 108/145/207 106/143/207
f 107/144/208 108/145/208 110/218/208
f 51/52/209 87/97/209 44/211/209
f 44/211/210 36/37/210 51/52/210
f 92/109/211 20/20/211 9/9/211
f 27/28/212 29/30/212 9/9/212
f 29/30/213 92/109/213 9/9/213
f 29/30/214 64/106/214 92/109/214
f 92/109/215 64/106/215 16/107/215
f 64/66/216 14/14/216 16/16/216
f 86/95/217 14/14/217 64/66/217
f 86/95/218 55/57/218 2/2/218
f 27/28/219 9/9/219 8/8/219
f 81/88/220 8/216/220 84/92/220
f 35/89/221 4/4/221 23/162/221
f 33/34/222 35/36/222 23/23/222
f 39/40/223 102/131/223 66/68/223
f 68/70/224 39/40/224 66/68/224
f 75/80/225 17/17/225 70/72/225
f 75/80/226 42/43/226 17/17/226
f 23/23/13 6/221/227 21/21/11
f 21/154/228 6/147/228 110/149/228
f 69/191/229 19/217/229 48/49/229
f 17/17/230 19/19/230 69/71/230
f 55/57/231 3/3/231 2/2/231
f 99/123/232 3/125/232 55/120/232
f 114/166/99 109/148/101 5/150/233
f 84/92/234 114/169/234 5/5/234
f 89/102/235 118/173/235 90/103/235
f 118/195/236 24/194/236 90/193/236
f 81/88/237 27/202/237 8/216/237
f 80/87/238 27/202/238 81/88/238
f 112/160/239 15/161/239 7/151/239
f 2/2/240 7/7/241 15/15/242
f 86/95/243 2/2/243 14/14/243
f 14/14/244 2/2/240 15/15/242
f 50/51/245 109/146/245 54/56/245
f 54/56/246 48/49/246 50/51/246
f 40/41/247 68/70/247 111/198/247
f 67/69/248 111/198/248 68/70/248
f 43/197/249 45/46/249 113/164/249
f 47/48/250 113/164/250 45/46/250
