# Blender v2.79 (sub 0) OBJ File: 'pawn.obj'
# www.blender.org
mtllib knight.mtl
o PM3D_CHESS_SET_3.001
v 0.266548 0.522381 0.491134
v 0.141954 0.815655 0.598023
v -0.113378 0.525501 0.583995
v -0.461115 0.526452 -0.336806
v -0.609954 0.529181 0.076036
v -0.610979 0.822100 -0.247942
v -0.425285 0.528714 0.434504
v -0.226793 1.272035 0.488229
v -0.477704 1.016322 0.354477
v 0.007737 1.339320 -0.539538
v 0.096577 1.846500 -0.305081
v 0.459280 1.843132 -0.307780
v 0.170779 -0.010191 0.634733
v -0.610744 -0.013979 -0.256974
v 0.645941 -0.001112 -0.147943
v 0.645829 2.100585 -0.107279
v 0.471045 1.202361 -0.132398
v 0.344066 1.195285 -0.422416
v -0.575570 -0.009620 0.383074
v -0.662419 0.913258 0.136533
v 0.165013 0.762975 -0.596643
v 0.198567 -0.000002 -0.577591
v 0.121928 1.867704 0.308287
v -0.588216 2.271015 0.246017
v -0.341930 1.988413 0.199423
v 0.468314 1.216114 0.143549
v 0.674299 2.247122 0.104435
v 0.358173 1.195407 0.392195
v 0.458218 0.084165 -0.531780
v 0.140009 0.084211 -0.709090
v 0.257838 0.212070 -0.533164
v 0.253371 0.524960 -0.433384
v 0.478799 0.527332 -0.091496
v 0.534340 0.392086 -0.385698
v 0.600553 0.394832 0.354364
v 0.496360 0.214215 0.380431
v 0.675987 0.397444 -0.022748
v 0.219515 0.390436 0.731238
v -0.529847 2.020772 -0.252746
v -0.613251 2.317230 -0.235906
v -0.021713 2.373569 -0.256367
v 0.324748 2.406192 0.303606
v -0.117748 2.482033 -0.025375
v -0.381368 1.323940 -0.408915
v -0.491159 1.414113 0.177453
v -0.151203 1.850271 0.163403
v -0.546829 2.419394 -0.014290
v -0.557534 1.925280 -0.035609
v -0.636764 2.057106 0.237129
v -0.702925 2.169919 -0.163716
v 0.615676 2.436623 -0.088551
v 0.331316 2.598032 -0.277676
v 0.266018 2.622410 -0.119077
v 0.555285 2.285017 0.269947
v 0.453621 1.844777 0.317800
v 0.545968 0.723101 -0.186373
v 0.555611 0.754535 0.159427
v 0.417007 0.711296 0.427387
v -0.159565 0.862728 -0.581527
v -0.160191 0.514089 -0.505330
v -0.492420 0.215483 -0.429209
v -0.615860 0.396099 -0.444902
v -0.197965 0.403560 -0.673731
v -0.677350 0.218605 -0.091385
v -0.630872 0.065047 -0.473596
v -0.609062 0.217163 0.372343
v -0.829784 0.065546 -0.038156
v -0.708574 0.063124 0.442468
v -0.259559 0.214395 0.640954
v -0.402298 0.051967 0.727214
v 0.190099 0.086600 0.794382
v 0.038442 1.331448 0.512903
v -0.142274 1.837177 -0.143978
v -0.465513 1.470248 -0.155301
v -0.293436 0.381769 0.728970
v 0.542868 2.303396 -0.266397
v -0.357134 1.969352 -0.128774
v 0.676852 0.069748 0.321367
v 0.118190 0.217700 0.652742
v 0.657737 0.110301 -0.212832
v 0.577984 0.223751 -0.098750
v -0.782417 0.382102 0.001074
v -0.642866 0.413554 0.475285
v 0.352854 0.731472 -0.478945
v 0.473980 2.558163 0.135053
v 0.616171 2.660293 0.011126
v -0.016092 2.452569 0.190609
v -0.182520 0.214268 -0.585328
v -0.277550 0.054458 -0.706157
v 0.187395 0.394114 -0.656143
v -0.639829 1.123891 -0.100667
v -0.673458 2.343928 0.146859
v 0.462439 0.523668 0.203687
v 0.792385 2.220830 0.000645
v 0.583606 1.227576 0.007887
v 0.126701 2.760094 0.013902
v -0.278349 2.068850 -0.255077
v 0.141927 2.595572 0.056018
v 0.327258 2.640732 0.261831
v 0.666158 0.801679 -0.017586
vt 0.900610 0.369153
vt 0.888554 0.397533
vt 0.863845 0.369455
vt 0.703488 0.458656
vt 0.703224 0.418705
vt 0.674878 0.450056
vt 0.833662 0.369766
vt 0.852870 0.441697
vt 0.828590 0.416952
vt 0.508260 0.533690
vt 0.499663 0.484611
vt 0.464564 0.484937
vt 0.020449 0.286213
vt 0.106739 0.361840
vt 0.096188 0.240232
vt 0.423404 0.364245
vt 0.336484 0.361814
vt 0.335800 0.333749
vt 0.044802 0.358436
vt 0.703269 0.384017
vt 0.666057 0.412851
vt 0.493040 0.589463
vt 0.137764 0.283524
vt 0.886616 0.499339
vt 0.817896 0.538367
vt 0.841728 0.511020
vt 0.337816 0.388517
vt 0.437584 0.384732
vt 0.335812 0.412578
vt 0.245109 0.607126
vt 0.227951 0.576333
vt 0.244975 0.587735
vt 0.435144 0.805670
vt 0.468228 0.827485
vt 0.439758 0.832859
vt 0.966704 0.523782
vt 0.949225 0.526304
vt 0.966957 0.487289
vt 0.382784 0.947943
vt 0.392866 0.965421
vt 0.355992 0.964996
vt 0.560281 0.467747
vt 0.568353 0.439059
vt 0.511110 0.433607
vt 0.906242 0.551448
vt 0.398491 0.344843
vt 0.490180 0.907848
vt 0.467827 0.917141
vt 0.469807 0.859898
vt 0.545913 0.535178
vt 0.827288 0.455445
vt 0.860185 0.497652
vt 0.491253 0.866326
vt 0.565731 0.953784
vt 0.552974 0.927391
vt 0.542058 0.966181
vt 0.484067 0.978820
vt 0.465766 0.951303
vt 0.481112 0.944984
vt 0.441252 0.400749
vt 0.398651 0.405379
vt 0.270933 0.332688
vt 0.290107 0.356591
vt 0.271162 0.365772
vt 0.293149 0.390054
vt 0.288965 0.415984
vt 0.524450 0.579810
vt 0.553630 0.612351
vt 0.568133 0.583741
vt 0.524511 0.613547
vt 0.814086 0.716206
vt 0.826032 0.698728
vt 0.785593 0.698006
vt 0.107018 0.744320
vt 0.124495 0.742801
vt 0.124192 0.710110
vt 0.287726 0.497238
vt 0.255034 0.515133
vt 0.250740 0.501735
vt 0.332601 0.503846
vt 0.292876 0.482487
vt 0.339387 0.494216
vt 0.358593 0.537667
vt 0.366942 0.523854
vt 0.373441 0.581180
vt 0.918713 0.497120
vt 0.878537 0.447446
vt 0.576650 0.439996
vt 0.612158 0.441092
vt 0.575383 0.410251
vt 0.556490 0.974796
vt 0.617590 0.408891
vt 0.309634 0.947960
vt 0.306356 0.964157
vt 0.275813 0.948228
vt 0.524609 0.806945
vt 0.533596 0.770180
vt 0.547842 0.802394
vt 0.476948 0.411886
vt 0.456476 0.440397
vt 0.581339 0.760486
vt 0.558595 0.739622
vt 0.554946 0.768153
vt 0.590355 0.741093
vt 0.050773 0.237241
vt 0.346188 0.948280
vt 0.353146 0.935594
vt 0.935245 0.520589
vt 0.939170 0.468895
vt 0.950150 0.479935
vt 0.936641 0.438031
vt 0.949019 0.437897
vt 0.484441 0.722127
vt 0.434030 0.721556
vt 0.477186 0.705438
vt 0.523075 0.718942
vt 0.547623 0.752756
vt 0.519130 0.739997
vt 0.484490 0.612495
vt 0.290917 0.328279
vt 0.444490 0.736530
vt 0.411886 0.761995
vt 0.961995 0.920158
vt 0.981379 0.890059
vt 0.975753 0.930041
vt 0.511081 0.917685
vt 0.239928 0.545122
vt 0.228235 0.535926
vt 0.428182 0.765650
vt 0.413588 0.799286
vt 0.741485 0.716537
vt 0.784097 0.716324
vt 0.748302 0.698920
vt 0.714728 0.699117
vt 0.645674 0.435805
vt 0.506847 0.854072
vt 0.516443 0.862321
vt 0.525219 0.936127
vt 0.105328 0.655274
vt 0.108372 0.701163
vt 0.124332 0.665236
vt 0.270808 0.394337
vt 0.511374 0.839267
vt 0.966439 0.452167
vt 0.496793 0.825902
vt 0.474880 0.846566
vt 0.400250 0.933963
vt 0.038823 0.948544
vt 0.038773 0.926899
vt 0.021721 0.969426
vt 0.338925 0.375389
vt 0.435041 0.374689
vt 0.928389 0.939699
vt 0.072658 0.930565
vt 0.535945 0.463094
vt 0.591826 0.720301
vt 0.562080 0.721165
vt 0.626316 0.465634
vt 0.475714 0.547628
vt 0.467684 0.387695
vt 0.873259 0.555936
vt 0.085564 0.383036
vt 0.909477 0.434282
vt 0.915170 0.387435
vt 0.498057 0.932976
vt 0.522777 0.485513
vt 0.272541 0.967233
vt 0.133331 0.258398
vt 0.270683 0.422153
vt 0.906485 0.574144
vt 0.517973 0.950910
vt 0.532274 0.926531
vt 0.813198 0.517667
vt 0.005000 0.284343
vt 0.011500 0.341669
vt 0.505704 0.965109
vt 0.475674 0.399963
vt 0.086137 0.917242
vt 0.929862 0.923778
vt 0.367955 0.111224
vt 0.370619 0.090465
vt 0.354290 0.092835
vt 0.150205 0.329597
vt 0.656084 0.391761
vt 0.992805 0.887515
vt 0.297710 0.372924
vt 0.127701 0.363788
vt 0.527802 0.973166
vt 0.928551 0.539722
vt 0.474864 0.592511
vt 0.543568 0.472723
vt 0.602350 0.757806
vt 0.039054 0.371307
vt 0.443030 0.348847
vt 0.471542 0.347756
vt 0.455923 0.366057
vt 0.928389 0.475174
vt 0.150489 0.289191
vn 0.2282 -0.2464 0.9419
vn -0.8813 -0.3519 -0.3154
vn -0.5320 0.0811 0.8429
vn -0.0029 0.4200 -0.9075
vn 0.0107 -0.9999 -0.0051
vn 0.0114 -0.9998 -0.0136
vn 0.9049 -0.1651 -0.3922
vn -0.0031 -1.0000 0.0070
vn -0.8729 -0.1900 0.4494
vn 0.2906 0.1725 -0.9412
vn 0.0115 -0.9998 -0.0146
vn -0.3082 -0.4101 0.8584
vn 0.9066 -0.1664 0.3877
vn 0.3889 0.6017 -0.6977
vn 0.4490 0.8410 -0.3019
vn 0.8641 -0.4740 0.1696
vn 0.6744 -0.2911 0.6785
vn -0.0389 0.0458 -0.9982
vn -0.0680 0.0343 0.9971
vn 0.7401 -0.0126 -0.6724
vn -0.1000 0.8840 -0.4567
vn -0.3010 0.4431 -0.8444
vn -0.5615 0.4598 0.6879
vn -0.1433 0.9144 -0.3786
vn -0.8591 -0.5118 -0.0022
vn 0.4647 0.8837 0.0555
vn 0.7932 -0.1182 0.5974
vn -0.4340 0.4837 0.7600
vn 0.7170 -0.0255 0.6966
vn 0.7191 -0.0261 0.6944
vn 0.7132 -0.0245 0.7005
vn 0.7323 -0.4836 -0.4795
vn 0.8700 0.1401 0.4726
vn -0.5900 -0.0570 -0.8054
vn -0.1104 -0.2120 -0.9710
vn -0.4407 -0.3721 -0.8169
vn -0.7401 -0.5406 -0.4001
vn -0.6340 0.6878 -0.3534
vn -0.7792 0.5942 0.1995
vn -0.4374 0.6904 0.5762
vn -0.1258 0.5493 0.8261
vn -0.1679 0.1003 0.9807
vn 0.2042 0.1991 0.9585
vn -0.7487 0.6611 -0.0499
vn -0.7084 -0.6084 -0.3579
vn -0.9875 -0.1185 -0.1040
vn -0.7873 0.6150 0.0431
vn -0.5386 -0.4750 0.6959
vn 0.1285 0.8583 0.4968
vn 0.1408 0.0633 -0.9880
vn -0.0071 0.0386 -0.9992
vn -0.1611 -0.9061 0.3912
vn 0.2347 -0.9710 0.0455
vn 0.2328 -0.9638 0.1302
vn 0.3795 0.7671 0.5173
vn 0.8243 0.5659 0.0135
vn 0.4978 0.7758 -0.3878
vn 0.8985 0.1853 -0.3979
vn 0.8931 0.1830 0.4109
vn -0.5863 0.7865 -0.1943
vn -0.6788 0.7184 0.1521
vn -0.0152 0.7195 0.6944
vn -0.4239 0.8787 0.2195
vn 0.1599 -0.5173 -0.8407
vn 0.7335 -0.4631 -0.4974
vn -0.5447 0.8140 -0.2018
vn -0.3022 0.7950 -0.5260
vn 0.4729 -0.5791 0.6641
vn 0.0039 -0.4648 0.8854
vn 0.5234 0.2571 0.8124
vn -0.1367 0.9709 0.1968
vn 0.0773 0.7812 -0.6195
vn -0.4292 0.5954 -0.6792
vn 0.0755 0.8258 -0.5589
vn 0.4317 0.7161 -0.5485
vn 0.0971 -0.5311 -0.8417
vn 0.5885 -0.2837 -0.7571
vn -0.9916 -0.0340 -0.1246
vn -0.5951 0.0145 -0.8035
vn -0.1641 0.7221 0.6720
vn -0.9868 -0.0823 0.1397
vn -0.9074 -0.3068 0.2874
vn -0.6866 0.7197 0.1033
vn 0.8716 -0.2738 0.4067
vn 0.4792 0.7262 0.4929
vn 0.6435 -0.6135 -0.4578
vn 0.8374 -0.5303 0.1321
vn 0.4469 0.8397 0.3083
vn 0.6001 0.7900 0.1255
vn 0.6080 0.5113 0.6074
vn 0.6446 0.7543 0.1248
vn 0.6912 0.2929 -0.6607
vn 0.6608 -0.1443 -0.7366
vn 0.1422 0.6776 0.7216
vn 0.2836 0.3898 -0.8761
vn -0.8673 -0.3677 -0.3355
vn -0.8042 -0.5828 0.1166
vn -0.0937 0.0655 -0.9934
vn -0.5188 -0.8517 0.0735
vn -0.5843 -0.8113 0.0176
vn -0.3293 -0.6365 0.6974
vn -0.8099 0.1929 -0.5539
vn -0.6257 0.5677 -0.5351
vn -0.0274 0.0190 0.9994
vn -0.0021 0.3568 0.9342
vn -0.4312 0.0500 0.9008
vn -0.2816 0.7459 0.6036
vn 0.6912 0.0049 -0.7226
vn 0.8328 0.0825 -0.5474
vn 0.7702 0.4517 0.4504
vn -0.1460 0.6794 0.7191
vn -0.3199 -0.9472 0.0240
vn -0.7236 0.6055 -0.3313
vn 0.5573 0.1274 0.8205
vn 0.7111 -0.0240 0.7027
vn -0.4631 0.8225 0.3302
vn -0.3909 0.8719 -0.2950
vn -0.1226 0.0991 -0.9875
vn -0.4781 0.7017 -0.5283
vn -0.0175 0.0938 -0.9954
vn -0.3191 0.1937 -0.9277
vn -0.6613 0.2862 0.6934
vn -0.9349 0.3048 0.1817
vn -0.4378 -0.5847 -0.6830
vn -0.4753 0.5682 -0.6718
vn -0.2749 0.8314 0.4829
vn -0.5486 -0.4603 0.6980
vn -0.4859 -0.1858 -0.8540
vn -0.2422 0.8351 -0.4938
vn 0.0311 -0.4209 -0.9066
vn 0.0445 0.8556 -0.5157
vn 0.5226 0.7586 -0.3891
vn 0.3446 -0.8665 -0.3610
vn 0.7489 -0.4249 0.5085
vn 0.4956 -0.1037 0.8623
vn -0.0278 0.7265 0.6866
vn -0.0251 -0.4014 0.9156
vn -0.2890 0.1709 0.9419
vn -0.5053 0.8177 0.2756
vn -0.7024 0.1303 0.6997
vn 0.1113 -0.0665 0.9916
vn 0.3992 -0.8046 0.4395
vn -0.0089 -0.8546 0.5192
vn -0.3253 0.6857 -0.6511
vn -0.4110 -0.4131 -0.8127
vn 0.8755 -0.3467 -0.3366
vn 0.5912 0.7694 -0.2421
vn 0.1907 0.9088 -0.3711
vn 0.7136 0.4693 0.5202
vn 0.1518 0.7618 -0.6298
vn -0.3665 0.9229 -0.1182
vn -0.2015 0.2254 0.9532
vn -0.7791 -0.2222 -0.5862
vn -0.0718 -0.9749 0.2106
vn -0.5275 0.6100 0.5913
vn -0.0598 -0.9793 -0.1935
vn -0.0497 0.6210 -0.7822
vn -0.7679 0.0225 0.6402
vn -0.7932 0.2250 0.5659
vn -0.1687 0.3742 0.9119
vn -0.1223 0.1377 0.9829
vn 0.6699 0.2520 0.6984
vn 0.6384 -0.1287 0.7589
vn -0.8176 0.3379 -0.4662
vn -0.8928 0.4505 0.0072
vn 0.7563 0.1888 -0.6264
vn 0.7553 0.1878 -0.6279
vn 0.7516 0.1845 -0.6333
vn 0.9278 -0.3729 0.0080
vn 0.9518 -0.3028 0.0490
vn 0.5398 0.8408 0.0404
vn -0.2342 -0.9201 -0.3139
vn -0.5373 -0.8071 -0.2445
vn -0.8765 0.4506 -0.1693
vn -0.5209 -0.0984 -0.8479
vn 0.2285 0.1683 0.9589
vn 0.1779 0.0657 0.9819
vn 0.5410 0.1118 -0.8335
vn 0.4408 -0.3907 -0.8081
vn -0.4056 -0.5779 -0.7082
vn -0.0101 0.0043 -0.9999
vn 0.0151 -0.9160 -0.4009
vn 0.1517 -0.8202 -0.5515
vn -0.4401 -0.8916 0.1065
vn -0.3366 -0.8829 0.3275
vn 0.7845 -0.1357 -0.6051
vn 0.7504 0.1834 -0.6351
vn 0.7610 -0.1279 0.6360
vn 0.7449 0.1631 0.6469
vn 0.4792 -0.8752 0.0662
vn 0.8257 0.1272 0.5495
vn 0.6574 0.4488 -0.6053
vn 0.7824 -0.0866 -0.6167
vn 0.5386 0.0950 -0.8372
vn 0.8905 0.1046 -0.4429
vn 0.8037 -0.3607 -0.4732
vn 0.9903 -0.1313 -0.0454
vn -0.6426 0.7507 -0.1534
vn -0.1750 0.9373 0.3014
vn 0.3397 -0.7160 -0.6098
vn 0.0552 -0.8295 -0.5558
usemtl None
s 1
f 1/1/1 2/2/1 3/3/1
f 4/4/2 5/5/2 6/6/2
f 7/7/3 8/8/3 9/9/3
f 10/10/4 11/11/4 12/12/4
f 13/13/5 14/14/6 15/15/6
f 16/16/7 17/17/7 18/18/7
f 19/19/8 14/14/8 13/13/8
f 5/5/9 7/20/9 20/21/9
f 21/22/10 10/10/10 12/12/10
f 15/15/6 14/14/6 22/23/11
f 23/24/12 24/25/12 25/26/12
f 26/27/13 27/28/13 28/29/13
f 29/30/14 30/31/14 31/32/14
f 32/33/15 33/34/15 34/35/15
f 35/36/16 36/37/16 37/38/16
f 36/39/17 35/40/17 38/41/17
f 39/42/18 40/43/18 41/44/18
f 23/24/19 42/45/19 24/25/19
f 18/18/20 12/46/20 16/16/20
f 43/47/21 41/48/21 40/49/21
f 11/11/22 10/10/22 44/50/22
f 45/51/23 8/8/23 46/52/23
f 47/53/24 43/47/24 40/49/24
f 48/54/25 49/55/25 50/56/25
f 51/57/26 52/58/26 53/59/26
f 27/28/27 54/60/27 55/61/27
f 8/8/28 23/24/28 46/52/28
f 28/29/29 27/28/30 55/61/31
f 32/62/32 56/63/32 33/64/32
f 57/65/33 28/29/33 58/66/33
f 59/67/34 4/68/34 6/69/34
f 60/70/35 59/67/35 21/22/35
f 61/71/36 62/72/36 63/73/36
f 62/74/37 61/75/37 64/76/37
f 64/77/38 61/78/38 65/79/38
f 66/80/39 67/81/39 68/82/39
f 69/83/40 66/80/40 70/84/40
f 71/85/41 69/83/41 70/84/41
f 3/3/42 2/2/42 8/8/42
f 2/2/43 55/86/43 72/87/43
f 73/88/44 74/89/44 46/90/44
f 48/54/45 50/56/45 39/91/45
f 5/5/46 20/21/46 6/6/46
f 74/89/47 45/92/47 46/90/47
f 69/93/48 75/94/48 66/95/48
f 1/96/49 3/97/49 38/98/49
f 12/12/50 52/99/50 76/100/50
f 12/12/51 11/11/51 52/99/51
f 48/101/52 25/102/52 49/103/52
f 25/102/53 48/101/53 77/104/53
f 78/105/54 13/13/54 15/15/54
f 36/39/55 79/106/55 71/107/55
f 78/108/56 80/109/56 81/110/56
f 81/110/57 29/111/57 31/112/57
f 18/18/58 17/17/58 56/63/58
f 57/65/59 26/27/59 28/29/59
f 5/113/60 62/114/60 82/115/60
f 5/113/61 82/115/61 83/116/61
f 38/98/62 3/97/62 75/117/62
f 5/113/63 83/116/63 7/118/63
f 32/119/64 60/70/64 21/22/64
f 56/63/65 32/62/65 84/120/65
f 4/121/66 62/114/66 5/113/66
f 4/121/67 63/122/67 62/114/67
f 38/41/68 79/106/68 36/39/68
f 38/41/69 75/94/69 69/93/69
f 85/123/70 27/124/70 86/125/70
f 87/126/71 43/47/71 47/53/71
f 31/32/72 30/31/72 88/127/72
f 61/78/73 89/128/73 65/79/73
f 32/33/74 63/122/74 60/129/74
f 32/33/75 34/35/75 90/130/75
f 31/131/76 88/132/76 90/133/76
f 34/134/77 31/131/77 90/133/77
f 20/21/78 91/135/78 6/6/78
f 59/67/79 6/69/79 44/50/79
f 92/136/80 24/137/80 87/126/80
f 49/55/81 92/138/81 50/56/81
f 83/139/82 82/140/82 66/141/82
f 64/77/83 67/81/83 66/80/83
f 93/142/84 57/65/84 58/66/84
f 38/98/85 35/143/85 1/96/85
f 34/144/86 81/110/86 31/112/86
f 37/38/87 36/37/87 81/110/87
f 93/145/88 1/96/88 35/143/88
f 93/145/89 35/143/89 37/146/89
f 36/39/90 71/107/90 78/147/90
f 81/110/91 36/37/91 78/108/91
f 51/148/92 86/149/92 94/150/92
f 95/151/93 16/16/93 94/152/93
f 85/123/94 86/125/94 96/153/94
f 86/149/95 51/148/95 53/154/95
f 82/140/96 62/74/96 64/76/96
f 82/140/97 64/76/97 66/141/97
f 11/11/98 97/155/98 52/99/98
f 25/102/99 77/104/99 73/156/99
f 46/157/100 25/102/100 73/156/100
f 23/24/101 25/26/101 46/52/101
f 6/6/102 91/135/102 44/158/102
f 74/89/103 73/88/103 44/158/103
f 23/24/104 55/86/104 42/45/104
f 72/87/105 55/86/105 23/24/105
f 3/3/106 8/8/106 7/7/106
f 83/116/107 3/97/107 7/118/107
f 21/22/108 12/12/108 18/159/108
f 18/18/109 56/63/109 84/120/109
f 27/28/110 85/160/110 54/60/110
f 24/25/111 42/45/111 87/161/111
f 19/19/112 67/162/112 14/14/112
f 64/77/113 65/79/113 67/81/113
f 28/163/114 2/2/114 58/164/114
f 28/163/29 55/86/31 2/2/115
f 87/126/116 98/165/116 43/47/116
f 43/47/117 53/59/117 52/58/117
f 97/155/118 41/44/118 52/99/118
f 43/47/119 52/58/119 41/48/119
f 21/22/120 59/67/120 10/10/120
f 59/67/121 44/50/121 10/10/121
f 9/9/122 8/8/122 45/51/122
f 20/21/123 45/92/123 91/135/123
f 11/11/124 73/166/124 97/155/124
f 11/11/125 44/50/125 73/166/125
f 83/116/126 75/117/126 3/97/126
f 66/95/127 75/94/127 83/167/127
f 4/68/128 59/67/128 60/70/128
f 60/129/129 63/122/129 4/121/129
f 88/132/130 63/73/130 90/133/130
f 32/33/131 90/130/131 63/122/131
f 81/110/132 80/109/132 29/111/132
f 15/15/133 22/23/133 29/168/133
f 93/142/134 58/66/134 1/169/134
f 2/2/135 1/1/135 58/164/135
f 71/107/136 79/106/136 69/93/136
f 79/106/137 38/41/137 69/93/137
f 42/45/138 99/170/138 87/161/138
f 98/165/139 87/126/139 99/171/139
f 49/55/140 24/172/140 92/138/140
f 49/173/141 25/26/141 24/25/141
f 13/13/142 78/105/142 71/174/142
f 13/13/143 71/174/143 70/175/143
f 88/127/144 89/128/144 61/78/144
f 63/73/145 88/132/145 61/71/145
f 37/38/146 81/110/146 34/144/146
f 37/146/147 34/35/147 33/34/147
f 99/171/148 85/176/148 98/165/148
f 99/177/149 54/60/149 85/160/149
f 53/154/150 96/178/150 86/149/150
f 98/165/151 53/59/151 43/47/151
f 96/153/152 98/179/152 85/123/152
f 53/180/153 98/181/153 96/182/153
f 70/175/154 19/19/154 13/13/154
f 66/80/155 68/82/155 70/84/155
f 14/14/156 89/183/156 22/23/156
f 88/127/157 30/31/157 89/128/157
f 9/184/158 20/21/158 7/20/158
f 20/21/159 9/184/159 45/92/159
f 72/87/160 23/24/160 8/8/160
f 2/2/161 72/87/161 8/8/161
f 27/124/162 94/185/162 86/125/162
f 95/151/163 94/152/163 27/28/163
f 91/135/164 74/89/164 44/158/164
f 45/92/165 74/89/165 91/135/165
f 56/63/166 17/17/167 100/186/168
f 93/142/169 56/63/169 57/65/169
f 33/64/170 56/63/170 93/142/170
f 93/145/171 37/146/171 33/34/171
f 65/187/172 89/183/172 14/14/172
f 14/14/173 67/162/173 65/187/173
f 50/56/174 92/138/174 40/188/174
f 40/188/175 39/91/175 50/56/175
f 42/45/176 54/189/176 99/170/176
f 54/189/177 42/45/177 55/86/177
f 18/159/178 84/190/178 21/22/178
f 84/190/179 32/119/179 21/22/179
f 73/166/180 77/191/180 97/155/180
f 39/42/181 41/44/181 97/155/181
f 48/101/182 39/192/182 77/104/182
f 39/42/183 97/155/183 77/191/183
f 67/162/184 19/19/184 68/193/184
f 68/193/185 19/19/185 70/175/185
f 17/17/186 16/16/186 95/151/186
f 95/151/187 100/186/168 17/17/167
f 27/28/188 26/27/188 95/151/188
f 95/151/189 26/27/189 57/65/189
f 100/186/190 57/65/190 56/63/190
f 100/186/191 95/151/191 57/65/191
f 76/194/192 52/195/192 51/196/192
f 12/46/193 76/194/193 16/16/193
f 51/196/194 94/152/194 16/16/194
f 16/16/195 76/194/195 51/196/195
f 80/109/196 15/197/196 29/111/196
f 15/197/197 80/109/197 78/108/197
f 47/53/198 40/49/198 92/136/198
f 87/126/199 47/53/199 92/136/199
f 22/23/200 30/198/200 29/168/200
f 89/183/201 30/198/201 22/23/201
